<svg
  version="1.1"
  xmlns="http://www.w3.org/2000/svg"
  xmlns:xlink="http://www.w3.org/1999/xlink"
  x="0px"
  y="0px"
  viewBox="0 0 68.59 67.9"
  style="width: 40px"
  xml:space="preserve"
>
  <g id="Layer_2">
    <path
      style="fill: #d5236b; width: 20px; height: 20px"
      d="M34.251,67.9c0-18.748,15.585-33.95,34.339-33.95l0,0C49.846,33.95,34.251,18.745,34.251,0l0,0
		c0,18.745-15.504,33.954-34.251,33.954C18.748,33.954,34.251,49.152,34.251,67.9z"
    ></path>
  </g>
  <g id="Layer_1"></g>
</svg>

<svg
  version="1.1"
  id="Layer_1"
  xmlns="http://www.w3.org/2000/svg"
  xmlns:xlink="http://www.w3.org/1999/xlink"
  x="0px"
  y="0px"
  viewBox="0 0 100.353 100.353"
  style="enable-background: new 0 0 100.353 100.353; width: 40px; border: 40px"
  xml:space="preserve"
>
  <path
    style="fill: #d5236b"
    d="M98.544,48.543c-25.998,0-47.15-20.904-47.15-46.599c0-0.804-0.652-1.456-1.456-1.456
	s-1.456,0.652-1.456,1.456c0,25.698-21.096,46.605-47.025,46.605c-0.804,0-1.456,0.652-1.456,1.456c0,0.805,0.652,1.457,1.456,1.457
	c25.929,0,47.025,20.901,47.025,46.592c0,0.804,0.652,1.457,1.456,1.457s1.456-0.652,1.456-1.457
	c0-25.694,21.152-46.599,47.15-46.599c0.804,0,1.456-0.652,1.456-1.456C100,49.195,99.348,48.543,98.544,48.543z M49.94,86.169
	c-4.428-17.748-18.541-31.752-36.436-36.163c17.895-4.412,32.008-18.421,36.436-36.174C54.379,31.582,68.528,45.588,86.467,50
	C68.528,54.411,54.378,68.419,49.94,86.169z"
  ></path>
</svg>
